<mxfile host="app.diagrams.net" modified="2020-09-01T11:27:24.470Z" agent="5.0 (Windows NT 10.0; Win64; x64) AppleWebKit/537.36 (KHTML, like Gecko) Chrome/84.0.4147.105 Safari/537.36" etag="3rMX962pxRYPSOVpRYuH" version="13.6.6" type="github">
  <diagram name="Page-1" id="c7558073-3199-34d8-9f00-42111426c3f3">
    <mxGraphModel dx="3123" dy="1343" grid="1" gridSize="10" guides="1" tooltips="1" connect="1" arrows="1" fold="1" page="1" pageScale="1" pageWidth="826" pageHeight="1169" background="#ffffff" math="0" shadow="0">
      <root>
        <mxCell id="0" />
        <mxCell id="1" parent="0" />
        <mxCell id="sgPHK6PnVlHswypsh9BR-103" value="" style="html=1;rounded=1;strokeWidth=3;" vertex="1" parent="1">
          <mxGeometry x="93.5" y="360" width="690" height="160" as="geometry" />
        </mxCell>
        <mxCell id="2" value="&lt;p style=&quot;margin: 0px ; margin-top: 4px ; text-align: center ; text-decoration: underline&quot;&gt;&lt;strong&gt;Process 1&lt;br&gt;&lt;/strong&gt;&lt;/p&gt;&lt;hr&gt;&lt;p style=&quot;margin: 0px ; margin-left: 8px&quot;&gt;adbos-filecollector&lt;br&gt;&lt;/p&gt;" style="verticalAlign=middle;align=center;overflow=fill;fontSize=12;fontFamily=Helvetica;html=1;rounded=1;fontStyle=1;strokeWidth=3;fillColor=#E6FFCC" parent="1" vertex="1">
          <mxGeometry x="176" y="200" width="135" height="90" as="geometry" />
        </mxCell>
        <mxCell id="3" value="/device_log&#xa;443" style="whiteSpace=wrap;align=center;verticalAlign=middle;fontStyle=1;strokeWidth=3;fillColor=#FFFFCC" parent="1" vertex="1">
          <mxGeometry x="201" y="80" width="90" height="60" as="geometry" />
        </mxCell>
        <mxCell id="4" value="udp:15140..." style="whiteSpace=wrap;align=center;verticalAlign=middle;fontStyle=1;strokeWidth=3;fillColor=#FFFFCC" parent="1" vertex="1">
          <mxGeometry x="363.5" y="80" width="90" height="60" as="geometry" />
        </mxCell>
        <mxCell id="5" value="KAFKA-0" style="shape=process;whiteSpace=wrap;align=center;verticalAlign=middle;size=0.0475;fontStyle=1;strokeWidth=3;fillColor=#FFCCCC" parent="1" vertex="1">
          <mxGeometry x="170" y="380" width="520" height="50" as="geometry" />
        </mxCell>
        <mxCell id="6" value="&lt;p style=&quot;margin: 0px ; margin-top: 4px ; text-align: center ; text-decoration: underline&quot;&gt;&lt;strong&gt;Process 1&lt;br&gt;&lt;/strong&gt;&lt;/p&gt;&lt;hr&gt;&lt;p style=&quot;margin: 0px ; margin-left: 8px&quot;&gt;adbos-syslogcollector&lt;br&gt;&lt;/p&gt;" style="verticalAlign=middle;align=center;overflow=fill;fontSize=12;fontFamily=Helvetica;html=1;rounded=1;fontStyle=1;strokeWidth=3;fillColor=#E6FFCC" parent="1" vertex="1">
          <mxGeometry x="341" y="199" width="140" height="89" as="geometry" />
        </mxCell>
        <mxCell id="8" value="&lt;p style=&quot;margin: 0px ; margin-top: 4px ; text-align: center ; text-decoration: underline&quot;&gt;&lt;strong&gt;&lt;strong&gt;Process&lt;/strong&gt;&amp;nbsp;1&lt;br&gt;&lt;/strong&gt;&lt;/p&gt;&lt;hr&gt;&lt;p style=&quot;margin: 0px ; margin-left: 8px&quot;&gt;adbos-requestcollector&lt;br&gt;&lt;/p&gt;" style="verticalAlign=middle;align=center;overflow=fill;fontSize=12;fontFamily=Helvetica;html=1;rounded=1;fontStyle=1;strokeWidth=3;fillColor=#E6FFCC" parent="1" vertex="1">
          <mxGeometry x="511" y="198" width="160" height="90" as="geometry" />
        </mxCell>
        <mxCell id="9" value="&lt;p style=&quot;margin: 0px ; margin-top: 4px ; text-align: center ; text-decoration: underline&quot;&gt;&lt;strong&gt;&lt;strong&gt;Process&lt;/strong&gt; 5&lt;br&gt;&lt;/strong&gt;&lt;/p&gt;&lt;hr&gt;&lt;p style=&quot;margin: 0px ; margin-left: 8px&quot;&gt;&lt;font style=&quot;font-size: 15px&quot;&gt;归并&lt;/font&gt;&lt;/p&gt;" style="verticalAlign=middle;align=center;overflow=fill;fontSize=12;fontFamily=Helvetica;html=1;rounded=1;fontStyle=1;strokeWidth=3;fillColor=#E6FFCC" parent="1" vertex="1">
          <mxGeometry x="580" y="600" width="150" height="130" as="geometry" />
        </mxCell>
        <mxCell id="10" value="&lt;p style=&quot;margin: 0px ; margin-top: 4px ; text-align: center ; text-decoration: underline&quot;&gt;&lt;strong&gt;&lt;strong&gt;Process&lt;/strong&gt;&amp;nbsp;3&lt;br&gt;&lt;/strong&gt;&lt;/p&gt;&lt;hr&gt;&lt;p style=&quot;margin: 0px ; margin-left: 8px&quot;&gt;&lt;font style=&quot;font-size: 15px&quot;&gt;拆包&lt;/font&gt;&lt;/p&gt;&lt;p style=&quot;margin: 0px ; margin-left: 8px&quot;&gt;解析xml/json/syslog&lt;/p&gt;&lt;p style=&quot;margin: 0px ; margin-left: 8px&quot;&gt;等,拆分成traffic和&lt;/p&gt;&lt;p style=&quot;margin: 0px ; margin-left: 8px&quot;&gt;event两种类型,再&lt;/p&gt;&lt;p style=&quot;margin: 0px ; margin-left: 8px&quot;&gt;放入kafka中&lt;/p&gt;" style="verticalAlign=middle;align=center;overflow=fill;fontSize=12;fontFamily=Helvetica;html=1;rounded=1;fontStyle=1;strokeWidth=3;fillColor=#E6FFCC" parent="1" vertex="1">
          <mxGeometry x="176" y="600" width="144" height="130" as="geometry" />
        </mxCell>
        <mxCell id="12" value="ads/nta/atm" style="whiteSpace=wrap;align=center;verticalAlign=middle;fontStyle=1;strokeWidth=3;fillColor=#FFFFCC" parent="1" vertex="1">
          <mxGeometry x="545" y="80" width="90" height="60" as="geometry" />
        </mxCell>
        <mxCell id="36" value="" style="edgeStyle=none;noEdgeStyle=1;strokeColor=#990000;strokeWidth=2" parent="1" source="3" target="2" edge="1">
          <mxGeometry width="100" height="100" relative="1" as="geometry">
            <mxPoint x="20" y="250" as="sourcePoint" />
            <mxPoint x="120" y="150" as="targetPoint" />
          </mxGeometry>
        </mxCell>
        <mxCell id="37" value="" style="edgeStyle=none;noEdgeStyle=1;strokeColor=#990000;strokeWidth=2;entryX=0.5;entryY=0;entryDx=0;entryDy=0;" parent="1" source="4" target="6" edge="1">
          <mxGeometry width="100" height="100" relative="1" as="geometry">
            <mxPoint x="280" y="190" as="sourcePoint" />
            <mxPoint x="411" y="190" as="targetPoint" />
            <Array as="points" />
          </mxGeometry>
        </mxCell>
        <mxCell id="11" value="&lt;p style=&quot;margin: 0px ; margin-top: 4px ; text-align: center ; text-decoration: underline&quot;&gt;&lt;strong&gt;&lt;strong&gt;Process&lt;/strong&gt;&amp;nbsp;4&lt;br&gt;&lt;/strong&gt;&lt;/p&gt;&lt;hr&gt;&lt;p style=&quot;margin: 0px ; margin-left: 8px&quot;&gt;&lt;font style=&quot;font-size: 15px&quot;&gt;批量入库&lt;/font&gt;&lt;/p&gt;&lt;p style=&quot;margin: 0px ; margin-left: 8px&quot;&gt;批量执行框架&lt;/p&gt;&lt;p style=&quot;margin: 0px ; margin-left: 8px&quot;&gt;告警入库&lt;/p&gt;" style="verticalAlign=middle;align=center;overflow=fill;fontSize=12;fontFamily=Helvetica;html=1;rounded=1;fontStyle=1;strokeWidth=3;fillColor=#E6FFCC" parent="1" vertex="1">
          <mxGeometry x="329.99999999999994" y="690" width="110" height="90" as="geometry" />
        </mxCell>
        <mxCell id="56" value="" style="edgeStyle=elbowEdgeStyle;elbow=horizontal;strokeColor=#990000;strokeWidth=2;" parent="1" source="2" edge="1">
          <mxGeometry width="100" height="100" relative="1" as="geometry">
            <mxPoint x="50" y="500" as="sourcePoint" />
            <mxPoint x="244" y="360" as="targetPoint" />
            <Array as="points">
              <mxPoint x="244" y="350" />
              <mxPoint x="280" y="360" />
            </Array>
          </mxGeometry>
        </mxCell>
        <mxCell id="59" value="" style="edgeStyle=elbowEdgeStyle;elbow=horizontal;strokeColor=#990000;strokeWidth=2" parent="1" source="6" target="sgPHK6PnVlHswypsh9BR-103" edge="1">
          <mxGeometry width="100" height="100" relative="1" as="geometry">
            <mxPoint x="350" y="370" as="sourcePoint" />
            <mxPoint x="411" y="360" as="targetPoint" />
            <Array as="points">
              <mxPoint x="400" y="360" />
              <mxPoint x="460" y="320" />
            </Array>
          </mxGeometry>
        </mxCell>
        <mxCell id="66" value="" style="edgeStyle=elbowEdgeStyle;elbow=vertical;strokeColor=#990000;strokeWidth=2;exitX=0.425;exitY=0;exitDx=0;exitDy=0;exitPerimeter=0;" parent="1" source="8" edge="1">
          <mxGeometry width="100" height="100" relative="1" as="geometry">
            <mxPoint x="610" y="220" as="sourcePoint" />
            <mxPoint x="579" y="144" as="targetPoint" />
            <Array as="points" />
          </mxGeometry>
        </mxCell>
        <mxCell id="68" value="" style="edgeStyle=elbowEdgeStyle;elbow=horizontal;strokeColor=#990000;strokeWidth=2" parent="1" source="8" edge="1">
          <mxGeometry width="100" height="100" relative="1" as="geometry">
            <mxPoint x="570" y="380" as="sourcePoint" />
            <mxPoint x="591" y="360" as="targetPoint" />
            <Array as="points">
              <mxPoint x="591" y="340" />
              <mxPoint x="570" y="360" />
            </Array>
          </mxGeometry>
        </mxCell>
        <mxCell id="77" value="" style="edgeStyle=elbowEdgeStyle;elbow=horizontal;strokeColor=#990000;strokeWidth=2" parent="1" target="9" edge="1">
          <mxGeometry width="100" height="100" relative="1" as="geometry">
            <mxPoint x="640" y="520" as="sourcePoint" />
            <mxPoint x="500" y="490" as="targetPoint" />
            <Array as="points">
              <mxPoint x="640" y="550" />
              <mxPoint x="680" y="640" />
              <mxPoint x="560" y="480" />
            </Array>
          </mxGeometry>
        </mxCell>
        <mxCell id="79" value="框架的话，比如: apache flink&#xa;如果1h数据量过大，考虑只归并5min, &#xa;1小时归并仍采用dbservice" style="text;spacingTop=-5;align=center" parent="1" vertex="1">
          <mxGeometry x="740" y="607.5" width="210" height="85" as="geometry" />
        </mxCell>
        <mxCell id="82" value="Traffic&#xa;" style="text;spacingTop=-5;align=center" parent="1" vertex="1">
          <mxGeometry x="470.00000000000045" y="550.0000000000001" width="30" height="20" as="geometry" />
        </mxCell>
        <mxCell id="84" value="Event" style="text;spacingTop=-5;align=center" parent="1" vertex="1">
          <mxGeometry x="393.50000000000017" y="550.0000000000002" width="30" height="20" as="geometry" />
        </mxCell>
        <mxCell id="88" value="" style="edgeStyle=elbowEdgeStyle;elbow=horizontal;strokeColor=#990000;strokeWidth=2;exitX=0.414;exitY=1;exitDx=0;exitDy=0;exitPerimeter=0;" parent="1" source="sgPHK6PnVlHswypsh9BR-103" target="11" edge="1">
          <mxGeometry width="100" height="100" relative="1" as="geometry">
            <mxPoint x="390" y="519" as="sourcePoint" />
            <mxPoint x="150" y="400" as="targetPoint" />
            <Array as="points">
              <mxPoint x="380" y="540" />
            </Array>
          </mxGeometry>
        </mxCell>
        <mxCell id="90" value="Version&#xa;specs" style="text;spacingTop=-5;align=center" parent="1" vertex="1">
          <mxGeometry x="261" y="461" width="30" height="20" as="geometry" />
        </mxCell>
        <mxCell id="91" value="Certificates,&#xa;system&#xa;libraries" style="text;spacingTop=-5;align=center" parent="1" vertex="1">
          <mxGeometry x="180" y="461.0000000000002" width="30" height="20" as="geometry" />
        </mxCell>
        <mxCell id="92" value="" style="edgeStyle=elbowEdgeStyle;elbow=horizontal;strokeColor=#990000;strokeWidth=2" parent="1" target="10" edge="1">
          <mxGeometry width="100" height="100" relative="1" as="geometry">
            <mxPoint x="260" y="520" as="sourcePoint" />
            <mxPoint x="130.0000000000001" y="400" as="targetPoint" />
            <Array as="points">
              <mxPoint x="260" y="540" />
            </Array>
          </mxGeometry>
        </mxCell>
        <mxCell id="93" value="" style="edgeStyle=elbowEdgeStyle;elbow=horizontal;strokeColor=#990000;strokeWidth=2;entryX=0.208;entryY=1.025;entryDx=0;entryDy=0;entryPerimeter=0;" parent="1" source="10" target="sgPHK6PnVlHswypsh9BR-103" edge="1">
          <mxGeometry width="100" height="100" relative="1" as="geometry">
            <mxPoint x="40" y="510" as="sourcePoint" />
            <mxPoint x="240" y="530" as="targetPoint" />
            <Array as="points" />
          </mxGeometry>
        </mxCell>
        <mxCell id="94" value="框架的话, 比如: &#xa;java&#xa;spring cloud streaming" style="text;spacingTop=-5;align=center" parent="1" vertex="1">
          <mxGeometry x="60" y="625" width="100" height="75" as="geometry" />
        </mxCell>
        <mxCell id="95" value="Design&#xa;specs" style="text;spacingTop=-5;align=center" parent="1" vertex="1">
          <mxGeometry x="423.49999999999994" y="461.0000000000002" width="30" height="20" as="geometry" />
        </mxCell>
        <mxCell id="96" value="System&#xa;version" style="text;spacingTop=-5;align=center" parent="1" vertex="1">
          <mxGeometry x="350.9999999999998" y="461" width="30" height="20" as="geometry" />
        </mxCell>
        <mxCell id="sgPHK6PnVlHswypsh9BR-97" value="" style="edgeStyle=elbowEdgeStyle;elbow=horizontal;strokeColor=#990000;strokeWidth=2;entryX=0.663;entryY=-0.033;entryDx=0;entryDy=0;entryPerimeter=0;" edge="1" parent="1" target="8">
          <mxGeometry width="100" height="100" relative="1" as="geometry">
            <mxPoint x="617" y="140" as="sourcePoint" />
            <mxPoint x="640" y="230" as="targetPoint" />
            <Array as="points">
              <mxPoint x="617" y="170" />
            </Array>
          </mxGeometry>
        </mxCell>
        <mxCell id="sgPHK6PnVlHswypsh9BR-104" value="KAFKA-1" style="shape=process;whiteSpace=wrap;align=center;verticalAlign=middle;size=0.0475;fontStyle=1;strokeWidth=3;fillColor=#FFCCCC" vertex="1" parent="1">
          <mxGeometry x="170" y="450" width="520" height="50" as="geometry" />
        </mxCell>
        <mxCell id="86" value="KAFKA集群" style="text;spacingTop=-5;align=center;fontStyle=1" parent="1" vertex="1">
          <mxGeometry x="690" y="430" width="86.5" height="20" as="geometry" />
        </mxCell>
        <mxCell id="sgPHK6PnVlHswypsh9BR-105" value="Event&#xa;Traffic" style="text;spacingTop=-5;align=center" vertex="1" parent="1">
          <mxGeometry x="180" y="540" width="40" height="40" as="geometry" />
        </mxCell>
        <mxCell id="sgPHK6PnVlHswypsh9BR-106" value="message" style="text;spacingTop=-5;align=center" vertex="1" parent="1">
          <mxGeometry x="281.00000000000017" y="550.0000000000002" width="30" height="20" as="geometry" />
        </mxCell>
        <mxCell id="sgPHK6PnVlHswypsh9BR-110" style="edgeStyle=orthogonalEdgeStyle;rounded=0;orthogonalLoop=1;jettySize=auto;html=1;fillColor=#e51400;strokeColor=#B20000;strokeWidth=3;" edge="1" parent="1" source="sgPHK6PnVlHswypsh9BR-107" target="sgPHK6PnVlHswypsh9BR-108">
          <mxGeometry relative="1" as="geometry" />
        </mxCell>
        <mxCell id="sgPHK6PnVlHswypsh9BR-111" value="bin log&lt;br&gt;同步" style="edgeLabel;html=1;align=center;verticalAlign=middle;resizable=0;points=[];" vertex="1" connectable="0" parent="sgPHK6PnVlHswypsh9BR-110">
          <mxGeometry x="-0.1852" y="1" relative="1" as="geometry">
            <mxPoint as="offset" />
          </mxGeometry>
        </mxCell>
        <mxCell id="sgPHK6PnVlHswypsh9BR-107" value="psql-0" style="shape=cylinder2;whiteSpace=wrap;html=1;boundedLbl=1;backgroundOutline=1;size=15;rounded=1;strokeWidth=3;fillColor=#fad7ac;strokeColor=#b46504;" vertex="1" parent="1">
          <mxGeometry x="355" y="1000" width="60" height="80" as="geometry" />
        </mxCell>
        <mxCell id="sgPHK6PnVlHswypsh9BR-108" value="&lt;br&gt;&lt;br&gt;psql-1&lt;br&gt;只读流量&lt;br&gt;告警" style="shape=cylinder2;whiteSpace=wrap;html=1;boundedLbl=1;backgroundOutline=1;size=15;rounded=1;strokeWidth=3;fillColor=#fad7ac;strokeColor=#b46504;" vertex="1" parent="1">
          <mxGeometry x="655" y="1000" width="60" height="80" as="geometry" />
        </mxCell>
        <mxCell id="sgPHK6PnVlHswypsh9BR-109" value="" style="edgeStyle=elbowEdgeStyle;elbow=horizontal;strokeColor=#990000;strokeWidth=2;exitX=0.5;exitY=1;exitDx=0;exitDy=0;" edge="1" parent="1" source="sgPHK6PnVlHswypsh9BR-117" target="sgPHK6PnVlHswypsh9BR-107">
          <mxGeometry width="100" height="100" relative="1" as="geometry">
            <mxPoint x="401.99999999999983" y="770" as="sourcePoint" />
            <mxPoint x="351" y="980" as="targetPoint" />
            <Array as="points">
              <mxPoint x="385" y="900" />
              <mxPoint x="402.84" y="790" />
            </Array>
          </mxGeometry>
        </mxCell>
        <mxCell id="sgPHK6PnVlHswypsh9BR-113" value="&lt;p style=&quot;margin: 0px ; margin-top: 4px ; text-align: center ; text-decoration: underline&quot;&gt;&lt;strong&gt;&lt;strong&gt;Process&lt;/strong&gt;&amp;nbsp;4&lt;br&gt;&lt;/strong&gt;&lt;/p&gt;&lt;hr&gt;&lt;p style=&quot;margin: 0px ; margin-left: 8px&quot;&gt;&lt;font style=&quot;font-size: 15px&quot;&gt;批量入库&lt;/font&gt;&lt;/p&gt;&lt;p style=&quot;margin: 0px ; margin-left: 8px&quot;&gt;批量执行框架&lt;/p&gt;&lt;p style=&quot;margin: 0px ; margin-left: 8px&quot;&gt;告警入库&lt;/p&gt;" style="verticalAlign=middle;align=center;overflow=fill;fontSize=12;fontFamily=Helvetica;html=1;rounded=1;fontStyle=1;strokeWidth=3;fillColor=#E6FFCC" vertex="1" parent="1">
          <mxGeometry x="453.49999999999994" y="690" width="110" height="90" as="geometry" />
        </mxCell>
        <mxCell id="sgPHK6PnVlHswypsh9BR-114" value="" style="edgeStyle=elbowEdgeStyle;elbow=horizontal;strokeColor=#990000;strokeWidth=2;exitX=0.414;exitY=1;exitDx=0;exitDy=0;exitPerimeter=0;" edge="1" parent="1">
          <mxGeometry width="100" height="100" relative="1" as="geometry">
            <mxPoint x="507.9999999999999" y="520" as="sourcePoint" />
            <mxPoint x="508.84000000000003" y="690" as="targetPoint" />
            <Array as="points">
              <mxPoint x="508.84000000000003" y="540" />
            </Array>
          </mxGeometry>
        </mxCell>
        <mxCell id="sgPHK6PnVlHswypsh9BR-118" value="" style="edgeStyle=elbowEdgeStyle;elbow=horizontal;strokeColor=#990000;strokeWidth=2;exitX=0.5;exitY=1;exitDx=0;exitDy=0;" edge="1" parent="1" source="sgPHK6PnVlHswypsh9BR-119">
          <mxGeometry width="100" height="100" relative="1" as="geometry">
            <mxPoint x="508" y="780" as="sourcePoint" />
            <mxPoint x="385" y="1000" as="targetPoint" />
            <Array as="points">
              <mxPoint x="508" y="900" />
              <mxPoint x="525.8399999999999" y="790" />
            </Array>
          </mxGeometry>
        </mxCell>
        <mxCell id="sgPHK6PnVlHswypsh9BR-117" value="Event Snap表" style="text;spacingTop=-5;align=center" vertex="1" parent="1">
          <mxGeometry x="370.00000000000017" y="870.0000000000002" width="30" height="20" as="geometry" />
        </mxCell>
        <mxCell id="sgPHK6PnVlHswypsh9BR-120" value="" style="edgeStyle=elbowEdgeStyle;elbow=horizontal;strokeColor=#990000;strokeWidth=2;exitX=0.5;exitY=1;exitDx=0;exitDy=0;" edge="1" parent="1" source="11" target="sgPHK6PnVlHswypsh9BR-117">
          <mxGeometry width="100" height="100" relative="1" as="geometry">
            <mxPoint x="385" y="780" as="sourcePoint" />
            <mxPoint x="385" y="1000" as="targetPoint" />
            <Array as="points" />
          </mxGeometry>
        </mxCell>
        <mxCell id="sgPHK6PnVlHswypsh9BR-119" value="Traffic Snap表" style="text;spacingTop=-5;align=center" vertex="1" parent="1">
          <mxGeometry x="493.50000000000017" y="870.0000000000002" width="30" height="20" as="geometry" />
        </mxCell>
        <mxCell id="sgPHK6PnVlHswypsh9BR-121" value="" style="edgeStyle=elbowEdgeStyle;elbow=horizontal;strokeColor=#990000;strokeWidth=2;exitX=0.5;exitY=1;exitDx=0;exitDy=0;" edge="1" parent="1" target="sgPHK6PnVlHswypsh9BR-119">
          <mxGeometry width="100" height="100" relative="1" as="geometry">
            <mxPoint x="508" y="780" as="sourcePoint" />
            <mxPoint x="385" y="1000" as="targetPoint" />
            <Array as="points" />
          </mxGeometry>
        </mxCell>
        <mxCell id="sgPHK6PnVlHswypsh9BR-122" value="框架比如: &#xa;java&#xa;spring batch" style="text;spacingTop=-5;align=center" vertex="1" parent="1">
          <mxGeometry x="393.5" y="785" width="100" height="75" as="geometry" />
        </mxCell>
        <mxCell id="sgPHK6PnVlHswypsh9BR-123" value="Web" style="whiteSpace=wrap;align=center;verticalAlign=middle;fontStyle=1;strokeWidth=3;fillColor=#FFFFCC" vertex="1" parent="1">
          <mxGeometry x="825.9999999999999" y="930" width="90" height="60" as="geometry" />
        </mxCell>
        <mxCell id="sgPHK6PnVlHswypsh9BR-124" value="Web" style="whiteSpace=wrap;align=center;verticalAlign=middle;fontStyle=1;strokeWidth=3;fillColor=#FFFFCC" vertex="1" parent="1">
          <mxGeometry x="825.9999999999999" y="1090" width="90" height="60" as="geometry" />
        </mxCell>
        <mxCell id="sgPHK6PnVlHswypsh9BR-125" value="Web" style="whiteSpace=wrap;align=center;verticalAlign=middle;fontStyle=1;strokeWidth=3;fillColor=#FFFFCC" vertex="1" parent="1">
          <mxGeometry x="825.9999999999999" y="1010" width="90" height="60" as="geometry" />
        </mxCell>
        <mxCell id="sgPHK6PnVlHswypsh9BR-126" value="" style="edgeStyle=elbowEdgeStyle;elbow=horizontal;strokeColor=#990000;strokeWidth=2;exitX=0;exitY=0.5;exitDx=0;exitDy=0;entryX=1.033;entryY=0.513;entryDx=0;entryDy=0;entryPerimeter=0;" edge="1" parent="1" source="sgPHK6PnVlHswypsh9BR-123" target="sgPHK6PnVlHswypsh9BR-108">
          <mxGeometry width="100" height="100" relative="1" as="geometry">
            <mxPoint x="748.5000000000002" y="880.0000000000002" as="sourcePoint" />
            <mxPoint x="625" y="990" as="targetPoint" />
            <Array as="points">
              <mxPoint x="770" y="950" />
              <mxPoint x="765.8399999999999" y="780" />
            </Array>
          </mxGeometry>
        </mxCell>
        <mxCell id="sgPHK6PnVlHswypsh9BR-127" value="" style="edgeStyle=elbowEdgeStyle;elbow=horizontal;strokeColor=#990000;strokeWidth=2;exitX=0;exitY=0.5;exitDx=0;exitDy=0;" edge="1" parent="1" source="sgPHK6PnVlHswypsh9BR-125">
          <mxGeometry width="100" height="100" relative="1" as="geometry">
            <mxPoint x="528.5000000000002" y="910.0000000000002" as="sourcePoint" />
            <mxPoint x="714" y="1040" as="targetPoint" />
            <Array as="points">
              <mxPoint x="770" y="1030" />
              <mxPoint x="545.8399999999999" y="810" />
            </Array>
          </mxGeometry>
        </mxCell>
        <mxCell id="sgPHK6PnVlHswypsh9BR-128" value="" style="edgeStyle=elbowEdgeStyle;elbow=horizontal;strokeColor=#990000;strokeWidth=2;exitX=0;exitY=0.5;exitDx=0;exitDy=0;" edge="1" parent="1" source="sgPHK6PnVlHswypsh9BR-124">
          <mxGeometry width="100" height="100" relative="1" as="geometry">
            <mxPoint x="538.5000000000002" y="920.0000000000002" as="sourcePoint" />
            <mxPoint x="720" y="1040" as="targetPoint" />
            <Array as="points">
              <mxPoint x="770" y="1070" />
              <mxPoint x="555.8399999999999" y="820" />
            </Array>
          </mxGeometry>
        </mxCell>
        <mxCell id="sgPHK6PnVlHswypsh9BR-130" value="Traffic&#xa;" style="text;spacingTop=-5;align=center" vertex="1" parent="1">
          <mxGeometry x="600.0000000000005" y="550.0000000000001" width="30" height="20" as="geometry" />
        </mxCell>
        <mxCell id="sgPHK6PnVlHswypsh9BR-131" value="" style="edgeStyle=elbowEdgeStyle;elbow=horizontal;strokeColor=#990000;strokeWidth=2;exitX=0.5;exitY=1;exitDx=0;exitDy=0;entryX=0.65;entryY=0.013;entryDx=0;entryDy=0;entryPerimeter=0;" edge="1" parent="1" source="9" target="sgPHK6PnVlHswypsh9BR-107">
          <mxGeometry width="100" height="100" relative="1" as="geometry">
            <mxPoint x="660" y="740" as="sourcePoint" />
            <mxPoint x="518" y="880.0000000000002" as="targetPoint" />
            <Array as="points">
              <mxPoint x="655" y="840" />
            </Array>
          </mxGeometry>
        </mxCell>
        <mxCell id="sgPHK6PnVlHswypsh9BR-132" value="归并表" style="text;spacingTop=-5;align=center" vertex="1" parent="1">
          <mxGeometry x="671.0000000000002" y="870.0000000000002" width="30" height="20" as="geometry" />
        </mxCell>
        <mxCell id="sgPHK6PnVlHswypsh9BR-138" value="" style="edgeStyle=elbowEdgeStyle;elbow=horizontal;strokeColor=#990000;strokeWidth=2;exitX=1;exitY=0.5;exitDx=0;exitDy=0;entryX=1;entryY=0.5;entryDx=0;entryDy=0;" edge="1" parent="1" source="sgPHK6PnVlHswypsh9BR-123" target="sgPHK6PnVlHswypsh9BR-137">
          <mxGeometry width="100" height="100" relative="1" as="geometry">
            <mxPoint x="935.02" y="839.48" as="sourcePoint" />
            <mxPoint x="826" y="920.52" as="targetPoint" />
            <Array as="points">
              <mxPoint x="1010" y="790" />
              <mxPoint x="960" y="910" />
              <mxPoint x="874.8599999999999" y="659.48" />
            </Array>
          </mxGeometry>
        </mxCell>
        <mxCell id="sgPHK6PnVlHswypsh9BR-139" value="更新 smg, smp" style="edgeLabel;html=1;align=center;verticalAlign=middle;resizable=0;points=[];" vertex="1" connectable="0" parent="sgPHK6PnVlHswypsh9BR-138">
          <mxGeometry x="0.0737" y="2" relative="1" as="geometry">
            <mxPoint as="offset" />
          </mxGeometry>
        </mxCell>
        <mxCell id="sgPHK6PnVlHswypsh9BR-140" value="" style="edgeStyle=elbowEdgeStyle;elbow=horizontal;strokeColor=#990000;strokeWidth=2;exitX=0;exitY=0.5;exitDx=0;exitDy=0;entryX=1.013;entryY=0.638;entryDx=0;entryDy=0;entryPerimeter=0;" edge="1" parent="1" source="sgPHK6PnVlHswypsh9BR-137" target="9">
          <mxGeometry width="100" height="100" relative="1" as="geometry">
            <mxPoint x="665" y="740" as="sourcePoint" />
            <mxPoint x="800" y="820" as="targetPoint" />
            <Array as="points">
              <mxPoint x="790" y="683" />
            </Array>
          </mxGeometry>
        </mxCell>
        <mxCell id="sgPHK6PnVlHswypsh9BR-145" value="&lt;p style=&quot;margin: 0px ; margin-top: 4px ; text-align: center ; text-decoration: underline&quot;&gt;&lt;strong&gt;&lt;strong&gt;Process&lt;/strong&gt;&amp;nbsp;6&lt;br&gt;&lt;/strong&gt;&lt;/p&gt;&lt;hr&gt;&lt;p style=&quot;margin: 0px ; margin-left: 8px&quot;&gt;crond&lt;/p&gt;&lt;p style=&quot;margin: 0px ; margin-left: 8px&quot;&gt;停告警&lt;/p&gt;" style="verticalAlign=middle;align=center;overflow=fill;fontSize=12;fontFamily=Helvetica;html=1;rounded=1;fontStyle=1;strokeWidth=3;fillColor=#E6FFCC" vertex="1" parent="1">
          <mxGeometry x="800" y="830" width="160" height="60" as="geometry" />
        </mxCell>
        <mxCell id="sgPHK6PnVlHswypsh9BR-146" value="" style="edgeStyle=elbowEdgeStyle;elbow=horizontal;strokeColor=#990000;strokeWidth=2;exitX=0.5;exitY=0;exitDx=0;exitDy=0;entryX=0.5;entryY=1;entryDx=0;entryDy=0;" edge="1" parent="1" source="sgPHK6PnVlHswypsh9BR-145" target="sgPHK6PnVlHswypsh9BR-137">
          <mxGeometry width="100" height="100" relative="1" as="geometry">
            <mxPoint x="906" y="840" as="sourcePoint" />
            <mxPoint x="906" y="790" as="targetPoint" />
            <Array as="points">
              <mxPoint x="900" y="800" />
              <mxPoint x="906" y="810" />
              <mxPoint x="900" y="800" />
              <mxPoint x="956" y="960" />
              <mxPoint x="836" y="800" />
            </Array>
          </mxGeometry>
        </mxCell>
        <mxCell id="sgPHK6PnVlHswypsh9BR-137" value="&lt;br&gt;Redis&lt;br&gt;smg: ip范围&lt;br&gt;smp: ip范围" style="verticalAlign=middle;align=center;overflow=fill;fontSize=12;fontFamily=Helvetica;html=1;rounded=1;fontStyle=1;strokeWidth=3;fillColor=#E6FFCC" vertex="1" parent="1">
          <mxGeometry x="840" y="692.5" width="150" height="70" as="geometry" />
        </mxCell>
      </root>
    </mxGraphModel>
  </diagram>
</mxfile>
